PathFileType	4	(X/Y/Z)	RBDS05\RBDS05runT25.trc
DataRate	CameraRate	NumFrames	NumMarkers	Units	OrigDataRate	OrigDataStartFrame	OrigNumFrames
150.000000	150.000000	4	33	mm	150.000000	3937	4500
Frame#	Time	L.ASIS			L.Heel.Bottom			L.Heel.Lateral			L.Heel.Top			L.Iliac.Crest			L.MT1			L.MT5			L.PSIS			L.Shank.Bottom.Lateral			L.Shank.Bottom.Medial			L.Shank.Top.Lateral			L.Shank.Top.Medial			L.Thigh.Bottom.Lateral			L.Thigh.Bottom.Medial			L.Thigh.Top.Lateral			L.Thigh.Top.Medial			R.ASIS			R.ASY			R.Heel.Bottom			R.Heel.Lateral			R.Heel.Top			R.Iliac.Crest			R.MT1			R.MT5			R.PSIS			R.Shank.Bottom.Lateral			R.Shank.Bottom.Medial			R.Shank.Top.Lateral			R.Shank.Top.Medial			R.Thigh.Bottom.Lateral			R.Thigh.Bottom.Medial			R.Thigh.Top.Lateral			R.Thigh.Top.Medial			
		X1	Y1	Z1	X2	Y2	Z2	X3	Y3	Z3	X4	Y4	Z4	X5	Y5	Z5	X6	Y6	Z6	X7	Y7	Z7	X8	Y8	Z8	X9	Y9	Z9	X10	Y10	Z10	X11	Y11	Z11	X12	Y12	Z12	X13	Y13	Z13	X14	Y14	Z14	X15	Y15	Z15	X16	Y16	Z16	X17	Y17	Z17	X18	Y18	Z18	X19	Y19	Z19	X20	Y20	Z20	X21	Y21	Z21	X22	Y22	Z22	X23	Y23	Z23	X24	Y24	Z24	X25	Y25	Z25	X26	Y26	Z26	X27	Y27	Z27	X28	Y28	Z28	X29	Y29	Z29	X30	Y30	Z30	X31	Y31	Z31	X32	Y32	Z32	X33	Y33	Z33	

3938	26.24666666666667	2237.965978880748	920.9084113486554	906.1402570752749	2037.073500269867	30.19694116122615	974.5255859841521	2066.720069527295	49.42399431699384	930.9084339908827	2050.557217141044	78.44458373884288	977.7556087303128	2172.527965725832	973.961502061527	868.7753795813626	2246.183720927233	46.39466321803079	999.3238699320593	2212.766882710891	42.82377529892338	899.3250448260179	2081.909593817284	952.218352017313	977.7964304414436	2145.496271873781	155.9771471480718	909.9303011847832	2105.138812285279	172.4219595610681	936.8187824844877	2167.206513467391	231.1719105117054	889.3271034749152	2127.573551828975	252.0038788412631	918.0339968900329	2238.365511107914	572.6148517921815	851.6752927845912	2181.260524824882	548.6490534425575	890.165019110175	2189.335137533242	672.151226601481	847.5792788922181	2139.444701607361	651.3460833732701	889.5320986474655	2238.920549705156	922.4219658085162	1134.772550320978	1955.026019912771	194.844458766017	1094.404973824199	1832.137124698773	325.0711492758143	1063.924604781703	1851.205326453564	309.4297325400406	1106.00112922216	1879.234727092575	334.6529713723519	1068.091908457747	2186.214835380205	965.3781057679716	1164.861820957675	1928.034827672985	140.7629584705577	1049.901227947117	1903.158549726506	167.5471476460862	1149.153650930043	2084.981035603475	951.4386797786415	1066.471722893712	1983.067526303266	330.57889297292	1138.964909893099	1969.433934793818	367.5825446412226	1100.855529059558	2048.290201062359	376.0501453018815	1156.921885677682	2034.921411285909	410.4703115500103	1117.988173939652	2258.987928739974	547.4091759666609	1198.324256147342	2197.722334005183	523.88075801387	1165.083378192408	2216.176099244411	649.2428630308422	1202.271424717731	2156.610122874845	626.0434537848852	1171.999491344074	
3939	26.25333333333333	2235.897307462596	920.9579055716773	905.8923873304924	2020.236738464493	30.02740826110039	974.286724951099	2049.779264218463	49.23872548936784	930.5596471156479	2033.473436544006	78.37614917367122	977.2440986854755	2168.984437981997	974.0603074186539	869.2068103758239	2229.267036836597	46.63018374321389	999.0593368561692	2195.69566088079	42.82400335462278	898.9767869928163	2080.506271966598	952.3618282837452	979.0091861410885	2129.564833964695	155.7210772272615	909.2527220980108	2089.538268674127	172.8570005939665	936.1865882583162	2152.50530445281	230.5596764242633	888.5602711613466	2113.113088397125	252.0428718094098	917.2022566223578	2229.653303634717	571.2703049545853	850.9896998384405	2172.242112288741	548.4707465160096	889.7331365957667	2182.797412806859	671.8348457419197	847.4582318777067	2132.810594974105	652.076304222663	889.9010781966728	2238.149140553674	922.6197318734283	1134.694541165559	1970.344974136766	191.338939272421	1092.966067521244	1842.253336122449	317.2060894995442	1066.203053296315	1862.630564877197	301.9032374920146	1107.745661200692	1889.016272038388	328.5022495751846	1069.606998127003	2184.899577316477	965.7220475019542	1165.201868472985	1944.550663936595	136.763434681389	1048.325064762214	1920.50819456403	161.6166810702508	1148.46434774326	2083.844851864525	951.578931436213	1067.47244058343	1994.63242358959	326.944271188695	1138.80649763389	1979.785465466392	363.8522289903821	1101.077121178238	2059.043622538516	373.7221171987412	1156.290295010685	2044.503535343911	408.0653386049631	1117.689822599008	2266.095577844141	549.6219566356314	1196.528626269944	2205.473161936628	524.8196733663182	1163.128523692536	2220.94979274253	650.3791999331632	1201.118721286059	2161.695632596884	625.8424779720264	1171.198509396401	
3940	26.26	2234.00727304498	921.4690478684411	905.7265337079576	2003.314956242484	29.91572461774687	974.0653871355026	2032.775246014188	49.09382333559059	930.2436459238938	2016.363158829181	78.35603900174448	976.7744671280914	2166.06025489719	975.0009272245225	869.6235816606542	2212.321525244226	46.69202577510846	998.8774477072672	2178.599586221322	42.6804903908738	898.6809404148548	2079.366405583781	953.2400802491351	980.1574218086561	2113.294109383381	155.620010801825	908.6574032969895	2073.585970651156	173.3038001215474	935.688924743429	2137.221663842715	230.1773147212346	887.9241887405153	2098.020454166242	252.1617537412621	916.5573071381873	2220.141193837483	570.4087172077591	850.5346220530433	2162.319976736278	548.9372811741629	889.4457655039662	2175.780106548189	672.0740786827138	847.5421418510457	2125.61556545888	653.5001440931946	890.4074493463593	2237.601093913391	923.4719508226412	1134.559450323648	1986.206979068408	187.4177144385043	1091.538904713032	1852.735840614181	308.1438607963244	1067.959970231209	1874.379059772979	293.3935250564672	1109.041290369319	1899.044983220274	321.3299378150606	1070.705998567426	2183.942810799162	966.8758199475168	1165.48573207947	1961.944095482633	132.1850608967325	1046.83042324497	1938.495388216336	155.2706922857742	1147.694052476131	2082.97524322081	952.5072356968194	1068.480416254672	2006.177936436792	322.9656986837063	1138.410889094617	1990.057239484129	359.5727937232894	1100.948017939704	2069.53249668589	371.327895467192	1155.404312304785	2053.75856291577	405.3957177798665	1117.032648453346	2272.759952460376	552.5196062572167	1194.710785766117	2212.799155760816	526.5543481522946	1161.076980608051	2225.418249439841	652.1985312707974	1200.02508324033	2166.525262210116	626.4279732697397	1170.362106742313	
3941	26.26666666666667	2232.289688313294	922.4232452525682	905.6108939853864	1986.333911480201	29.96563266585614	973.858901525766	2015.739306705103	49.08465836921346	929.9611042089916	1999.266406599916	78.48058632488106	976.3500180666769	2163.871314105417	976.7041593978873	870.0066971326066	2195.352357516102	46.61734334006525	998.775763378723	2161.496785788816	42.44635664432613	898.4453552499474	2078.470103946843	954.8088622406732	981.2567893350827	2096.776264101626	155.7904873999312	908.1705853833389	2057.370892356309	173.8891707220244	935.3515265770363	2121.474278072786	230.1438898117507	887.4556488482824	2082.418043893334	252.4932666649967	916.134890276706	2209.972356817442	570.1013151434879	850.3499397743534	2151.660025270196	550.1099616951385	889.3517619998773	2168.384663133062	672.9020475023424	847.8382240602838	2117.97550407222	655.6414012889621	891.0555538280299	2237.290252536763	924.9365320546202	1134.341222259272	2002.564679638195	183.104563497427	1090.164264332666	1863.647252960887	297.9517067814958	1069.153347559147	1886.483404763314	283.9602733481911	1109.858997654203	1909.375990998019	313.1647167548215	1071.357060412715	2183.389253910039	968.7501595075096	1165.708943272898	1980.174944825244	127.0867475759472	1045.453748376405	1957.053874498423	148.5873504212839	1146.87082254863	2082.367659877645	954.1651708062354	1069.50207844654	2017.694653918645	318.6354202964784	1137.783219566813	2000.252060914869	354.7377793069667	1100.470869525412	2079.729314504855	368.8356722312561	1154.281891355139	2062.673554391001	402.428676858562	1116.035741918042	2278.964445394246	556.0354786376942	1192.892730281988	2219.6214559016	529.0232980028577	1159.041067114627	2229.597015681938	654.6583000519252	1199.011886517293	2171.080376599044	627.7703886315957	1169.557331810755	
